<svg width="21" height="22" viewBox="0 0 21 22" fill="none" xmlns="http://www.w3.org/2000/svg">
<path d="M10.6325 0.925629C5.30828 0.925629 0.987488 5.48246 0.987488 11.0975C0.987488 16.7125 5.30828 21.2694 10.6325 21.2694C15.9566 21.2694 20.2774 16.7125 20.2774 11.0975C20.2774 5.48246 15.9566 0.925629 10.6325 0.925629ZM14.5488 15.8922C14.3855 15.8922 14.2843 15.8389 14.1327 15.7446C11.7059 14.2024 8.88237 14.1368 6.09388 14.7397C5.94221 14.7807 5.74386 14.8463 5.63108 14.8463C5.25383 14.8463 5.0166 14.5305 5.0166 14.1983C5.0166 13.7758 5.25383 13.5748 5.54552 13.5092C8.73069 12.7668 11.9859 12.8325 14.7627 14.5838C14.9999 14.7438 15.1399 14.8873 15.1399 15.2606C15.1399 15.6338 14.8638 15.8922 14.5488 15.8922ZM15.595 13.2016C15.3927 13.2016 15.2566 13.1073 15.1166 13.0293C12.6859 11.5118 9.06127 10.9006 5.8372 11.8235C5.65052 11.8768 5.54941 11.9301 5.3744 11.9301C4.95826 11.9301 4.61991 11.5733 4.61991 11.1344C4.61991 10.6955 4.82214 10.4043 5.22272 10.2854C6.30389 9.96547 7.4084 9.72758 9.02627 9.72758C11.5503 9.72758 13.9888 10.3879 15.91 11.5938C16.225 11.7907 16.3494 12.045 16.3494 12.4018C16.3456 12.8448 16.0189 13.2016 15.595 13.2016ZM16.8006 10.0762C16.5983 10.0762 16.4739 10.0229 16.2989 9.91625C13.5298 8.17309 8.57902 7.75473 5.3744 8.69809C5.23439 8.73911 5.05938 8.80473 4.8727 8.80473C4.35934 8.80473 3.96654 8.38227 3.96654 7.83676C3.96654 7.27895 4.29323 6.96313 4.64325 6.85649C6.01221 6.43403 7.54452 6.23305 9.21294 6.23305C12.052 6.23305 15.0272 6.85649 17.2012 8.1936C17.5045 8.37817 17.7029 8.63246 17.7029 9.12055C17.7029 9.67836 17.2751 10.0762 16.8006 10.0762Z" fill="white"/>
</svg>
