<svg width="23" height="22" viewBox="0 0 23 22" fill="none" xmlns="http://www.w3.org/2000/svg">
<path d="M0.731752 17.1898C0.731752 18.0507 1.01595 18.7828 1.58435 19.3861C2.15275 19.9894 2.8447 20.2907 3.6602 20.29H19.3535C20.169 20.29 20.861 19.9887 21.4294 19.3861C21.9978 18.7835 22.2819 18.0514 22.2819 17.1898V4.70285C22.2819 3.84197 21.9949 3.10148 21.4209 2.48136C20.847 1.86125 20.1578 1.55119 19.3535 1.55119H3.6602C2.8566 1.55119 2.16745 1.86125 1.59275 2.48136C1.01805 3.10148 0.731052 3.84197 0.731752 4.70285V17.1898ZM8.57 14.9337V6.95898C8.57 6.87849 8.5931 6.8155 8.6393 6.77001C8.6736 6.75881 8.7023 6.75321 8.7254 6.75321L8.8115 6.77001L16.3222 10.7657C16.3684 10.8119 16.3915 10.8693 16.3915 10.9379C16.3915 10.9841 16.3684 11.03 16.3222 11.0755L8.8115 15.0712C8.7884 15.0943 8.7653 15.1058 8.7422 15.1058C8.696 15.1058 8.6617 15.0943 8.6393 15.0712C8.5931 15.025 8.57 14.9792 8.57 14.9337Z" fill="white"/>
</svg>
