<svg width="22" height="22" viewBox="0 0 22 22" fill="none" xmlns="http://www.w3.org/2000/svg">
<path d="M19.89 1.44905C20.1973 1.44905 20.4577 1.5558 20.6712 1.7693C20.8847 1.9828 20.9915 2.2432 20.9915 2.5505V20.0193C20.9915 20.3266 20.8847 20.587 20.6712 20.8005C20.4577 21.014 20.1973 21.1208 19.89 21.1208H14.9214V13.5387H17.4572L17.8163 10.542H14.9214V8.62055C14.9214 8.15925 15.024 7.80925 15.2291 7.57055C15.4342 7.33185 15.8097 7.21215 16.3557 7.21145H17.9181V4.5476C17.2349 4.479 16.4751 4.4447 15.6386 4.4447C14.4948 4.4447 13.5725 4.7821 12.8718 5.4569C12.1711 6.1317 11.8211 7.0837 11.8218 8.3129V10.541H9.28605V13.5377H11.8218V21.1197H2.42115C2.11385 21.1197 1.85345 21.013 1.63995 20.7995C1.42645 20.586 1.3197 20.3256 1.3197 20.0183V2.54945C1.3197 2.24215 1.42645 1.98175 1.63995 1.76825C1.85345 1.55475 2.11385 1.448 2.42115 1.448L19.89 1.44905Z" fill="white"/>
</svg>
