<svg width="22" height="22" viewBox="0 0 22 22" fill="none" xmlns="http://www.w3.org/2000/svg">
<path d="M11.4375 2.62778C14.1978 2.62778 14.5219 2.64008 15.6129 2.6893C16.6219 2.73442 17.1674 2.90259 17.5324 3.04614C18.0164 3.23481 18.3609 3.4563 18.7219 3.81723C19.0828 4.17817 19.3084 4.5227 19.493 5.00669C19.6324 5.37173 19.8047 5.91723 19.8498 6.92622C19.899 8.01723 19.9113 8.34126 19.9113 11.1016C19.9113 13.862 19.899 14.186 19.8498 15.277C19.8047 16.286 19.6365 16.8315 19.493 17.1965C19.3043 17.6805 19.0828 18.025 18.7219 18.386C18.3609 18.7469 18.0164 18.9725 17.5324 19.1571C17.1674 19.2965 16.6219 19.4688 15.6129 19.5139C14.5219 19.5631 14.1978 19.5754 11.4375 19.5754C8.67714 19.5754 8.35311 19.5631 7.2621 19.5139C6.25311 19.4688 5.7076 19.3006 5.34257 19.1571C4.85858 18.9684 4.51405 18.7469 4.15311 18.386C3.79218 18.025 3.56659 17.6805 3.38202 17.1965C3.24257 16.8315 3.0703 16.286 3.02518 15.277C2.97596 14.186 2.96366 13.862 2.96366 11.1016C2.96366 8.34126 2.97596 8.01723 3.02518 6.92622C3.0703 5.91723 3.23846 5.37173 3.38202 5.00669C3.57069 4.5227 3.79218 4.17817 4.15311 3.81723C4.51405 3.4563 4.85858 3.23071 5.34257 3.04614C5.7076 2.90669 6.25311 2.73442 7.2621 2.6893C8.35311 2.63598 8.67714 2.62778 11.4375 2.62778ZM11.4375 0.765671C8.63202 0.765671 8.27928 0.777975 7.17596 0.827194C6.07675 0.876413 5.32616 1.05278 4.66991 1.30708C3.98905 1.56958 3.41483 1.92641 2.84061 2.50063C2.26639 3.07485 1.91366 3.65317 1.64706 4.32993C1.39276 4.98618 1.21639 5.73676 1.16718 6.84008C1.11796 7.9393 1.10565 8.29204 1.10565 11.0975C1.10565 13.903 1.11796 14.2557 1.16718 15.359C1.21639 16.4582 1.39276 17.2088 1.64706 17.8692C1.90956 18.55 2.26639 19.1243 2.84061 19.6985C3.41483 20.2727 3.99315 20.6254 4.66991 20.892C5.32616 21.1463 6.07675 21.3227 7.18007 21.3719C8.28339 21.4211 8.63202 21.4334 11.4416 21.4334C14.2512 21.4334 14.5998 21.4211 15.7031 21.3719C16.8023 21.3227 17.5529 21.1463 18.2133 20.892C18.8941 20.6295 19.4683 20.2727 20.0426 19.6985C20.6168 19.1243 20.9695 18.5459 21.2361 17.8692C21.4904 17.2129 21.6668 16.4623 21.716 15.359C21.7652 14.2557 21.7775 13.9071 21.7775 11.0975C21.7775 8.28794 21.7652 7.9393 21.716 6.83598C21.6668 5.73676 21.4904 4.98618 21.2361 4.32583C20.9736 3.64497 20.6168 3.07075 20.0426 2.49653C19.4683 1.92231 18.89 1.56958 18.2133 1.30298C17.557 1.04868 16.8064 0.872311 15.7031 0.823093C14.5957 0.777975 14.243 0.765671 11.4375 0.765671Z" fill="white"/>
<path d="M11.4375 5.79008C8.50897 5.79008 6.13007 8.16489 6.13007 11.0975C6.13007 14.0301 8.50897 16.4049 11.4375 16.4049C14.366 16.4049 16.7449 14.026 16.7449 11.0975C16.7449 8.16899 14.366 5.79008 11.4375 5.79008ZM11.4375 14.5428C9.53436 14.5428 7.99218 13.0006 7.99218 11.0975C7.99218 9.19438 9.53436 7.65219 11.4375 7.65219C13.3406 7.65219 14.8828 9.19438 14.8828 11.0975C14.8828 13.0006 13.3406 14.5428 11.4375 14.5428Z" fill="white"/>
<path d="M16.9541 6.81957C17.6382 6.81957 18.1928 6.265 18.1928 5.5809C18.1928 4.8968 17.6382 4.34222 16.9541 4.34222C16.27 4.34222 15.7155 4.8968 15.7155 5.5809C15.7155 6.265 16.27 6.81957 16.9541 6.81957Z" fill="white"/>
</svg>
