<svg width="22" height="22" viewBox="0 0 22 22" fill="none" xmlns="http://www.w3.org/2000/svg">
<path d="M21.466 5.0159C20.8955 5.8573 20.2109 6.5706 19.4122 7.1558C19.4122 7.2132 19.4192 7.30245 19.4332 7.42355C19.4472 7.54465 19.4542 7.6339 19.4542 7.6913C19.4542 8.8036 19.2901 9.91625 18.9618 11.0293C18.6335 12.1423 18.1344 13.2049 17.4645 14.2171C16.7946 15.2292 15.9994 16.1277 15.0789 16.9124C14.1584 17.6971 13.0531 18.3247 11.763 18.7951C10.4729 19.2655 9.08584 19.5007 7.60184 19.5007C5.29114 19.5007 3.18029 18.8801 1.26929 17.639C1.66899 17.6677 1.99694 17.6821 2.25314 17.6821C4.17884 17.6821 5.89769 17.0972 7.40969 15.9275C6.51089 15.9135 5.70869 15.6391 5.00309 15.1043C4.29749 14.5695 3.80189 13.8814 3.51629 13.04C3.75849 13.0974 4.02239 13.1261 4.30799 13.1261C4.69299 13.1261 5.05664 13.0691 5.39894 12.955C4.44344 12.7555 3.65174 12.2777 3.02384 11.5217C2.39594 10.7657 2.08199 9.8956 2.08199 8.9114V8.86835C2.62379 9.15395 3.24434 9.31075 3.94364 9.33875C3.38714 8.96775 2.94509 8.47915 2.61749 7.87295C2.28989 7.26675 2.12574 6.61435 2.12504 5.91575C2.12504 5.20245 2.30319 4.5035 2.65949 3.8189C3.70039 5.1167 4.95899 6.1401 6.43529 6.8891C7.91159 7.6381 9.51249 8.0553 11.238 8.1407C11.1379 7.7844 11.0878 7.47045 11.0878 7.19885C11.0878 6.05785 11.4942 5.0845 12.3069 4.2788C13.1196 3.4731 14.1108 3.07025 15.2805 3.07025C15.851 3.07025 16.4001 3.18435 16.9279 3.41255C17.4557 3.64075 17.9051 3.9617 18.2761 4.3754C19.2176 4.1899 20.0947 3.8546 20.9074 3.3695C20.6078 4.3397 20.0016 5.1027 19.0888 5.6585C19.9589 5.5444 20.7506 5.33055 21.4639 5.01695L21.466 5.0159Z" fill="white"/>
</svg>
