<svg width="33" height="22" viewBox="0 0 33 22" fill="none" xmlns="http://www.w3.org/2000/svg">
<path d="M6.17047 11.1098L6.45594 13.7758L6.17047 16.5772C6.1557 16.6797 6.06219 16.7577 5.95391 16.7577C5.84562 16.7577 5.74719 16.6797 5.74719 16.5772L5.47156 13.7758L5.74719 11.1098C5.74719 11.0196 5.8407 10.9375 5.95391 10.9375C6.06219 10.9375 6.1557 11.0196 6.17047 11.1098ZM7.22375 9.2395C7.08594 9.2395 6.99242 9.32973 6.97766 9.44458L6.73156 13.7758L6.97766 16.5772C6.99242 16.692 7.08594 16.7823 7.22375 16.7823C7.3468 16.7823 7.45508 16.692 7.45508 16.5772L7.74055 13.7758L7.45508 9.44458C7.45508 9.32973 7.3468 9.2395 7.22375 9.2395ZM8.47883 8.25102C8.32625 8.25102 8.21797 8.34126 8.2032 8.46841L7.98664 13.8004L8.2032 16.5813C8.21797 16.7084 8.32625 16.7987 8.47883 16.7987C8.61664 16.7987 8.73969 16.7084 8.73969 16.5813L9.00055 13.8004L8.73969 8.46841C8.73969 8.34126 8.61664 8.25102 8.47883 8.25102ZM1.04188 12.2131C0.972969 12.2131 0.933594 12.2582 0.918828 12.3157L0.6875 13.7758L0.918828 15.2114C0.933594 15.2688 0.972969 15.3139 1.04188 15.3139C1.11078 15.3139 1.15016 15.2688 1.16492 15.2114L1.44055 13.7758L1.16492 12.3157C1.15016 12.2582 1.11078 12.2131 1.04188 12.2131ZM2.20344 11.3149C2.13453 11.3149 2.08039 11.36 2.08039 11.4174L1.76539 13.7758L2.08039 16.0768C2.08039 16.1465 2.13453 16.1916 2.20344 16.1916C2.27234 16.1916 2.32648 16.1465 2.34125 16.0891L2.69563 13.7758L2.34125 11.4174C2.32648 11.36 2.27234 11.3149 2.20344 11.3149ZM3.44867 10.8473C3.365 10.8473 3.29609 10.9047 3.28625 10.9827L3.00078 13.7758L3.28625 16.4747C3.30102 16.5444 3.36992 16.6018 3.44867 16.6018C3.53234 16.6018 3.60125 16.5444 3.60125 16.4747L3.94086 13.7758L3.60125 10.9827C3.60125 10.9047 3.53234 10.8473 3.44867 10.8473ZM4.69391 10.7571C4.60039 10.7571 4.51672 10.8145 4.51672 10.9047L4.23125 13.7758L4.51672 16.5567C4.51672 16.6469 4.60039 16.7043 4.69391 16.7043C4.78742 16.7043 4.87109 16.6469 4.88586 16.5567L5.20086 13.7758L4.88586 10.9047C4.87109 10.8145 4.78742 10.7571 4.69391 10.7571ZM16.5753 6.20844C16.5212 6.17563 16.4375 6.15102 16.3686 6.15102C16.2603 6.15102 16.1619 6.18384 16.093 6.22895C15.9995 6.29868 15.9404 6.40122 15.9305 6.50376V6.53657L15.7681 13.784L15.8518 15.117L15.9355 16.4172C15.9502 16.61 16.1422 16.77 16.3735 16.77C16.6048 16.77 16.7968 16.61 16.7968 16.4172L16.9888 13.784L16.7968 6.50376C16.7771 6.38071 16.6984 6.26587 16.5753 6.20844ZM15.2612 6.83598C15.1923 6.80317 15.1234 6.77856 15.0446 6.77856C14.9659 6.77856 14.892 6.80317 14.828 6.83598C14.7198 6.89341 14.6509 6.99594 14.6509 7.11079L14.6361 7.18051L14.4983 13.7758C14.4983 13.7758 14.4983 13.7881 14.6509 16.4665V16.4788C14.6509 16.5485 14.6804 16.6141 14.7345 16.6715C14.8182 16.7495 14.9265 16.7987 15.0495 16.7987C15.1578 16.7987 15.2563 16.7536 15.3252 16.6961C15.4088 16.6387 15.4482 16.5608 15.4482 16.4665L15.463 16.1916L15.6155 13.7881L15.4531 7.11079C15.4384 6.99594 15.3695 6.89341 15.2612 6.83598ZM9.7782 7.75884C9.62562 7.75884 9.49273 7.87368 9.49273 8.00903L9.27617 13.7758L9.49273 16.5321C9.5075 16.6674 9.63055 16.77 9.7782 16.77C9.94063 16.77 10.0637 16.6674 10.0784 16.5321L10.3245 13.7758L10.0784 8.00903C10.0686 7.87368 9.94555 7.75884 9.7782 7.75884ZM28.3189 10.3346C27.7873 10.3346 27.2804 10.4249 26.8128 10.5848C26.4978 7.68091 23.5742 5.40044 20.0059 5.40044C19.1298 5.40044 18.2832 5.53579 17.5302 5.78598C17.2299 5.87622 17.1462 5.96645 17.1462 6.16333V16.4049C17.1462 16.61 17.3382 16.7577 17.5695 16.7823H28.314C30.4452 16.7823 32.1826 15.3467 32.1826 13.5707C32.1875 11.7825 30.4501 10.3346 28.3189 10.3346ZM13.7157 7.86137C13.509 7.86137 13.3466 7.99673 13.3318 8.1813L13.1694 13.7881L13.3318 16.4788C13.3466 16.651 13.509 16.7864 13.7157 16.7864C13.9224 16.7864 14.0848 16.651 14.0848 16.4788L14.2768 13.7881L14.0848 8.1813C14.0701 7.99673 13.9224 7.86137 13.7157 7.86137ZM11.0776 7.54145C10.9152 7.54145 10.7626 7.6686 10.7626 7.81626L10.5706 13.7758L10.7626 16.5198C10.7773 16.6674 10.9152 16.7823 11.0776 16.7823C11.2548 16.7823 11.3926 16.6674 11.4073 16.5198L11.6239 13.7758L11.4073 7.81626C11.3926 7.6686 11.2548 7.54145 11.0776 7.54145ZM12.3917 7.68091C12.1998 7.68091 12.0521 7.80805 12.0521 7.96391L11.8602 13.7758L12.0521 16.4993C12.0669 16.6592 12.2047 16.7823 12.3917 16.7823C12.5788 16.7823 12.7313 16.6551 12.7313 16.4993L12.938 13.7758L12.7313 7.96391C12.7313 7.80395 12.5837 7.68091 12.3917 7.68091Z" fill="white"/>
</svg>
