<svg width="17" height="22" viewBox="0 0 17 22" fill="none" xmlns="http://www.w3.org/2000/svg">
<path d="M13.8969 11.6184C13.8884 10.1131 14.5978 8.977 16.0337 8.14028C15.2302 7.03696 14.0166 6.42993 12.4141 6.31098C10.897 6.19614 9.23889 7.16 8.63206 7.16C7.99104 7.16 6.52098 6.352 5.36715 6.352C2.98257 6.38891 0.448425 8.17719 0.448425 11.8153C0.448425 12.8899 0.65355 14 1.0638 15.1457C1.6108 16.651 3.58513 20.3424 5.64493 20.2809C6.72183 20.2563 7.4825 19.5467 8.88419 19.5467C10.2431 19.5467 10.9483 20.2809 12.1491 20.2809C14.226 20.2522 16.0123 16.8971 16.5336 15.3877C13.7474 14.1286 13.8969 11.6963 13.8969 11.6184ZM11.4782 4.88364C12.6448 3.55473 12.538 2.34477 12.5038 1.91C11.4739 1.96743 10.2816 2.58266 9.60213 3.34145C8.85428 4.15356 8.41411 5.15844 8.50813 6.29047C9.6235 6.3725 10.6406 5.82289 11.4782 4.88364Z" fill="white"/>
</svg>
