<svg width="25" height="25" viewBox="0 0 25 25" fill="none" xmlns="http://www.w3.org/2000/svg">
<path d="M4.85779 6.47009H22.6854C22.8325 6.47009 22.9776 6.50394 23.1095 6.56914C23.2413 6.63429 23.3564 6.72904 23.4457 6.84589C23.535 6.96279 23.5961 7.09864 23.6244 7.24299C23.6526 7.38734 23.6472 7.53629 23.6085 7.67819L21.6447 14.877C21.4792 15.4843 21.1185 16.0203 20.6183 16.4025C20.1181 16.7847 19.5061 16.9917 18.8766 16.9918H7.07308" stroke="white" stroke-width="0.75" stroke-linecap="round" stroke-linejoin="round"/>
<path d="M1.9375 1.6875H2.29906C2.73798 1.68752 3.16354 1.83847 3.50437 2.11504C3.8452 2.3916 4.08056 2.77695 4.17098 3.20645L7.35715 18.3424C7.44755 18.7719 7.68295 19.1573 8.02375 19.4338C8.3646 19.7104 8.79015 19.8614 9.22905 19.8614H20.1114" stroke="white" stroke-width="0.75" stroke-linecap="round" stroke-linejoin="round"/>
<path d="M7.19836 22.2527C7.19836 22.6332 7.34956 22.9982 7.61861 23.2672C7.88771 23.5363 8.25261 23.6875 8.63316 23.6875C9.01366 23.6875 9.37861 23.5363 9.64771 23.2672C9.91676 22.9982 10.068 22.6332 10.068 22.2527C10.068 21.8722 9.91676 21.5072 9.64771 21.2381C9.37861 20.9691 9.01366 20.8179 8.63316 20.8179C8.25261 20.8179 7.88771 20.9691 7.61861 21.2381C7.34956 21.5072 7.19836 21.8722 7.19836 22.2527Z" stroke="white" stroke-width="0.75" stroke-linecap="round" stroke-linejoin="round"/>
<path d="M16.7636 22.2527C16.7636 22.6332 16.9148 22.9982 17.1838 23.2672C17.4529 23.5363 17.8179 23.6875 18.1984 23.6875C18.5789 23.6875 18.9439 23.5363 19.2129 23.2672C19.482 22.9982 19.6332 22.6332 19.6332 22.2527C19.6332 21.8722 19.482 21.5072 19.2129 21.2381C18.9439 20.9691 18.5789 20.8179 18.1984 20.8179C17.8179 20.8179 17.4529 20.9691 17.1838 21.2381C16.9148 21.5072 16.7636 21.8722 16.7636 22.2527Z" stroke="white" stroke-width="0.75" stroke-linecap="round" stroke-linejoin="round"/>
</svg>
